<svg xmlns="http://www.w3.org/2000/svg" viewBox="0 0 120 120" role="img" aria-label="Hasta profil logosu">
  <defs>
    <linearGradient id="bg" x1="0" y1="0" x2="1" y2="1">
      <stop offset="0%" stop-color="#e9f3ff"/>
      <stop offset="100%" stop-color="#b7d5ff"/>
    </linearGradient>
    <linearGradient id="tooth" x1="0" y1="0" x2="0" y2="1">
      <stop offset="0%" stop-color="#58a8ff"/>
      <stop offset="100%" stop-color="#0a57d8"/>
    </linearGradient>
  </defs>
  <circle cx="60" cy="60" r="56" fill="url(#bg)" stroke="#2f82ff" stroke-width="3"/>
  <path d="M60 24c-6 0-10 3-15 3-8 0-14 6-14 14 0 8 4 13 6 19 2 5 3 10 7 10 3 0 4-4 6-4s3 4 6 4c4 0 5-5 7-10 2-6 6-11 6-19 0-8-6-14-14-14-5 0-9-3-15-3z" fill="url(#tooth)"/>
  <circle cx="60" cy="84" r="16" fill="#ffffff" opacity="0.95"/>
  <path d="M52 87h16" stroke="#0a57d8" stroke-width="3" stroke-linecap="round"/>
  <path d="M60 79v16" stroke="#0a57d8" stroke-width="3" stroke-linecap="round"/>
</svg>
